<svg width="68" height="68" viewBox="0 0 68 68" fill="none" xmlns="http://www.w3.org/2000/svg">
<g clip-path="url(#clip0)">
<rect width="68" height="68" fill="url(#paint0_linear)"/>
<path d="M34.0002 0C15.2232 0 0.00100708 15.2226 0.00100708 33.9997C0.00100708 52.7762 15.2232 68 34.0002 68C52.7772 68 68.0006 52.7762 68.0006 33.9997C68.0006 15.2226 52.7772 0 34.0002 0ZM34.0009 11.9423L54.1207 24.4884H13.8811L34.0009 11.9423ZM54.3714 44.523H54.3694C54.3694 46.5354 52.7385 48.166 50.7263 48.166H17.2754C15.2631 48.166 13.6324 46.5351 13.6324 44.523V25.2867C13.6324 25.0739 13.6542 24.8669 13.6895 24.6636L32.9129 36.6506C32.9365 36.6653 32.9616 36.6753 32.9859 36.6889C33.0113 36.7029 33.0371 36.7165 33.0629 36.7294C33.1987 36.7995 33.3386 36.8559 33.4816 36.8929C33.4963 36.8969 33.5111 36.8988 33.5258 36.9022C33.6827 36.9391 33.8415 36.9622 34.0002 36.9622H34.0014C34.0025 36.9622 34.0036 36.9622 34.0036 36.9622C34.1623 36.9622 34.3212 36.9398 34.478 36.9022C34.4928 36.8985 34.5075 36.8969 34.5222 36.8929C34.665 36.8559 34.8044 36.7995 34.9409 36.7294C34.9667 36.7165 34.9926 36.7029 35.018 36.6889C35.042 36.6753 35.0674 36.6653 35.0909 36.6506L54.3143 24.6636C54.3496 24.8669 54.3714 25.0734 54.3714 25.2867V44.523Z" fill="#F2C94C"/>
</g>
<defs>
<linearGradient id="paint0_linear" x1="34" y1="0" x2="34" y2="68" gradientUnits="userSpaceOnUse">
<stop stop-color="white"/>
<stop offset="1" stop-color="white" stop-opacity="0"/>
</linearGradient>
<clipPath id="clip0">
<rect width="68" height="68" fill="white"/>
</clipPath>
</defs>
</svg>
