<svg width="68" height="68" viewBox="0 0 68 68" fill="none" xmlns="http://www.w3.org/2000/svg">
<g clip-path="url(#clip0)">
<path d="M34 51.5498C32.5549 51.5498 31.3793 52.7254 31.3793 54.1703C31.3793 55.6154 32.5549 56.791 34 56.791C35.4451 56.791 36.6207 55.6154 36.6207 54.1703C36.6207 52.7254 35.4451 51.5498 34 51.5498Z" fill="#F2C94C"/>
<path d="M34 40.199C30.2526 40.199 26.8459 41.6827 24.3345 44.0928L27.7056 45.0573L25.386 52.1775H27.7013C28.5486 49.5058 31.0515 47.5639 34 47.5639C36.9485 47.5639 39.4514 49.5058 40.2987 52.1775H42.614L40.2944 45.0573L43.6667 44.0924C41.1552 41.6823 37.7476 40.199 34 40.199Z" fill="#F2C94C"/>
<path d="M27.7013 56.1633H24.0875L23.0522 59.3414L20.8854 58.9864C22.6304 63.7237 26.872 67.2634 32.007 68V60.4691C29.9644 59.8213 28.349 58.2059 27.7013 56.1633Z" fill="#F2C94C"/>
<path d="M58.0408 43.0588L52.4364 29.1972C51.6227 27.1848 49.6943 25.8843 47.5233 25.8843H20.4767C18.3058 25.8843 16.3773 27.1846 15.5636 29.1972L9.95931 43.0588C9.23426 44.8524 9.74061 46.8953 11.2192 48.1427L18.9002 54.6221L20.3216 54.8551L22.6354 47.7527L20.5678 47.1613L18.0905 47.23L17.98 43.2456L19.7972 43.195C23.0846 38.9507 28.2283 36.2131 34 36.2131C39.7712 36.2131 44.913 38.9513 48.2004 43.195L50.0199 43.2455L49.9094 47.2299L47.4321 47.1612L45.3645 47.7526L47.6783 54.855L49.0997 54.6219L56.7807 48.1426C58.2595 46.8953 58.7659 44.8524 58.0408 43.0588Z" fill="#F2C94C"/>
<path d="M43.9125 56.1633H40.2987C39.651 58.2059 38.0356 59.8213 35.993 60.469V67.9998C41.1278 67.2632 45.3692 63.7236 47.1141 58.9863L44.9478 59.3414L43.9125 56.1633Z" fill="#F2C94C"/>
<path d="M34 23.8911C40.5973 23.8911 45.9456 18.5429 45.9456 11.9455C45.9456 5.3482 40.5973 0 34 0C27.4027 0 22.0545 5.3482 22.0545 11.9455C22.0545 18.5429 27.4027 23.8911 34 23.8911Z" fill="#F2C94C"/>
</g>
<defs>
<clipPath id="clip0">
<rect width="68" height="68" fill="white"/>
</clipPath>
</defs>
</svg>
