<svg width="68" height="68" viewBox="0 0 68 68" fill="none" xmlns="http://www.w3.org/2000/svg">
<g clip-path="url(#clip0)">
<rect width="68" height="68" fill="white"/>
<path d="M67.2531 23.3572L58.0731 14.1772C57.0786 13.1819 55.467 13.181 54.4708 14.1737L30.9249 37.6338C30.6044 37.9534 30.3749 38.3521 30.2594 38.7898L26.9444 51.3699C26.7131 52.2471 26.9656 53.1812 27.6066 53.8229C28.0919 54.3074 28.743 54.5701 29.4103 54.5701C29.627 54.5701 29.8455 54.5421 30.0598 54.4859L42.6406 51.1717C43.0776 51.0562 43.4771 50.8267 43.7966 50.5053L67.2567 26.9602C68.2493 25.9633 68.2476 24.3517 67.2531 23.3572ZM40.6719 46.4161L32.9904 48.4399L35.0142 40.7584L56.2668 19.5831L61.8471 25.1633L40.6719 46.4161Z" fill="#F2C94C"/>
<path d="M51.8668 20.2965L48.2612 23.9021L57.5256 33.1664L61.1311 29.5609L51.8668 20.2965Z" fill="#F2C94C"/>
<path d="M34.5255 37.6322L30.9199 41.2378L40.1848 50.5027L43.7904 46.8971L34.5255 37.6322Z" fill="#F2C94C"/>
<path d="M54.2302 20.4V5.86491C54.2302 3.00545 51.9897 0.764893 49.1302 0.764893H5.10002C2.24056 0.764893 0 3.00558 0 5.86491V62.1351C0 64.9946 2.24056 67.2352 5.10002 67.2352H49.1302C51.9897 67.2352 54.2302 64.9946 54.2302 62.1351V39.015H49.1302V62.1351H5.10002V5.86491H49.1302V20.4H54.2302Z" fill="#F2C94C"/>
<path d="M16.8301 14.875H12.1551C10.7466 14.875 9.60504 16.0165 9.60504 17.425C9.60504 18.8335 10.7466 19.975 12.1551 19.975H16.8301C18.2386 19.975 19.3801 18.8335 19.3801 17.425C19.3801 16.0165 18.2386 14.875 16.8301 14.875Z" fill="#F2C94C"/>
<path d="M42.3302 14.875H25.7551C24.3466 14.875 23.2051 16.0165 23.2051 17.425C23.2051 18.8335 24.3466 19.975 25.7551 19.975H42.3302C43.7386 19.975 44.8802 18.8335 44.8802 17.425C44.8802 16.0165 43.7386 14.875 42.3302 14.875Z" fill="#F2C94C"/>
<path d="M16.8301 25.925H12.1551C10.7466 25.925 9.60504 27.0666 9.60504 28.4751C9.60504 29.8835 10.7466 31.0251 12.1551 31.0251H16.8301C18.2386 31.0251 19.3801 29.8835 19.3801 28.4751C19.3801 27.0666 18.2386 25.925 16.8301 25.925Z" fill="#F2C94C"/>
<path d="M42.3302 25.925H25.7551C24.3466 25.925 23.2051 27.0666 23.2051 28.4751C23.2051 29.8835 24.3466 31.0251 25.7551 31.0251H42.3302C43.7386 31.0251 44.8802 29.8835 44.8802 28.4751C44.8802 27.0666 43.7386 25.925 42.3302 25.925Z" fill="#F2C94C"/>
<path d="M16.8301 36.9741H12.1551C10.7466 36.9741 9.60504 38.1156 9.60504 39.5241C9.60504 40.9326 10.7466 42.0741 12.1551 42.0741H16.8301C18.2386 42.0741 19.3801 40.9326 19.3801 39.5241C19.3801 38.1156 18.2386 36.9741 16.8301 36.9741Z" fill="#F2C94C"/>
<path d="M32.7251 36.9741H25.7551C24.3466 36.9741 23.2051 38.1156 23.2051 39.5241C23.2051 40.9326 24.3466 42.0741 25.7551 42.0741H32.7251C34.1336 42.0741 35.2751 40.9326 35.2751 39.5241C35.2751 38.1156 34.1336 36.9741 32.7251 36.9741Z" fill="#F2C94C"/>
<path d="M16.8301 48.0242H12.1551C10.7466 48.0242 9.60504 49.1657 9.60504 50.5742C9.60504 51.9827 10.7466 53.1242 12.1551 53.1242H16.8301C18.2386 53.1242 19.3801 51.9827 19.3801 50.5742C19.3801 49.1657 18.2386 48.0242 16.8301 48.0242Z" fill="#F2C94C"/>
<path d="M29.7501 48.0242H25.7551C24.3466 48.0242 23.2051 49.1657 23.2051 50.5742C23.2051 51.9827 24.3466 53.1242 25.7551 53.1242H29.7501C31.1586 53.1242 32.3001 51.9827 32.3001 50.5742C32.3001 49.1657 31.1586 48.0242 29.7501 48.0242Z" fill="#F2C94C"/>
</g>
<defs>
<clipPath id="clip0">
<rect width="68" height="68" fill="white"/>
</clipPath>
</defs>
</svg>
