<svg width="68" height="68" viewBox="0 0 68 68" fill="none" xmlns="http://www.w3.org/2000/svg">
<path d="M68 15.516V36.1004C68 36.1004 63.5945 36.9683 62.6869 37.0824C61.7822 37.1963 58.9391 38.1143 56.8786 36.1338C53.701 33.0884 42.4111 21.8608 42.4111 21.8608C42.4111 21.8608 40.4645 19.9507 37.3389 21.6015C34.4698 23.1137 30.2167 25.3299 28.4402 26.1929C25.0819 27.9804 22.2985 25.1444 22.2985 22.9842C22.2985 21.3085 23.3441 20.1713 24.8388 19.3349C28.8895 16.8793 37.4273 12.087 40.9833 10.1976C43.1447 9.04796 44.7021 8.94944 47.6696 11.4494C51.3244 14.5231 54.5769 17.3249 54.5769 17.3249C54.5769 17.3249 55.6377 18.2103 57.3296 17.8537C61.484 16.9753 68 15.516 68 15.516ZM23.0633 50.3941C23.61 48.9895 23.4273 47.4184 22.379 46.3405C21.4372 45.3764 20.062 45.1223 18.7508 45.4228C19.1175 44.1222 18.915 42.738 17.968 41.7611C17.0233 40.7995 15.6507 40.5403 14.3396 40.8435C14.7036 39.5449 14.5016 38.1608 13.5541 37.1869C12.0704 35.665 9.50407 35.7303 7.81814 37.3374C6.14113 38.9466 5.06685 41.8621 6.56357 43.5782C8.05783 45.2857 9.77477 44.2468 11.0837 43.9486C10.7195 45.2472 9.62852 46.4551 10.9721 48.1549C12.3145 49.8555 14.1832 48.8237 15.4935 48.5282C15.1281 49.8219 14.0847 51.1511 15.3767 52.7271C16.6804 54.3079 18.8157 53.4657 20.2259 53.0276C19.6817 54.4269 18.5167 55.9353 20.0134 57.6256C21.5078 59.3281 24.9613 58.5405 26.6482 56.9309C28.3306 55.3217 28.4921 52.7713 27.0123 51.2446C25.9907 50.1972 24.4678 49.9536 23.0633 50.3941ZM53.8436 39.685C41.6491 27.4904 47.3848 33.2286 40.8223 26.652C40.8223 26.652 38.8501 24.6885 36.2507 25.8291C34.4259 26.6287 32.0766 27.7185 30.3089 28.5504C28.3664 29.569 26.9684 29.8843 26.3121 29.8799C22.5569 29.8554 19.5102 26.8371 19.5102 23.0856C19.5102 20.6519 20.8022 18.5331 22.7292 17.3304C25.4389 15.4553 31.6761 12.1377 31.6761 12.1377C31.6761 12.1377 29.776 9.72998 25.6136 9.72998C21.4524 9.72998 12.7585 15.4255 12.7585 15.4255C12.7585 15.4255 10.2922 17.0052 6.77637 15.5823L0 13.2226V36.7769C0 36.7769 1.93495 37.337 3.67357 38.0471C4.06624 36.9273 4.69983 35.8932 5.57874 35.0391C8.46313 32.2918 13.244 32.2632 15.8683 34.9654C16.6588 35.7869 17.2105 36.7667 17.4921 37.8499C18.5495 38.1763 19.5073 38.7545 20.277 39.5475C21.0699 40.3635 21.6195 41.3489 21.9034 42.4266C22.9595 42.7533 23.916 43.3336 24.6883 44.1272C25.558 45.0241 26.1374 46.1074 26.408 47.2812C27.512 47.6028 28.5098 48.2011 29.3133 49.0227C30.8905 50.6426 31.4503 52.8404 31.1111 54.9605C31.1138 54.9605 31.119 54.9605 31.1215 54.9653C31.1473 54.999 32.0987 56.0596 32.6919 56.6578C33.8546 57.8215 35.753 57.8215 36.9192 56.6578C38.0778 55.4944 38.0828 53.5997 36.9192 52.4305C36.8775 52.3889 32.7247 48.0451 33.0589 47.7083C33.3907 47.3738 38.6816 52.8791 38.7801 52.9798C39.9412 54.1412 41.8385 54.1412 43.0048 52.9798C44.1684 51.8165 44.1659 49.9217 43.0048 48.7553C42.9477 48.7009 42.7095 48.4728 42.6212 48.3819C42.6212 48.3819 37.3754 43.7089 37.7747 43.3096C38.1789 42.9079 44.6948 48.9886 44.7054 48.9886C45.8767 50.0434 47.6809 50.0356 48.8077 48.9082C49.9041 47.812 49.9276 46.0779 48.9556 44.9094C48.9351 44.8472 43.9898 39.6791 44.3757 39.2903C44.7673 38.8964 49.6606 43.935 49.6709 43.9454C50.8294 45.1065 52.7292 45.1065 53.8956 43.9454C55.0567 42.7841 55.0567 40.887 53.8956 39.7155C53.8798 39.7056 53.8591 39.6952 53.8436 39.685Z" fill="#F2C94C"/>
</svg>
