<svg width="68" height="68" viewBox="0 0 68 68" fill="none" xmlns="http://www.w3.org/2000/svg">
<path d="M36.4922 34.8366C37.912 35.1674 39.3477 34.2822 39.6765 32.8443C39.8319 32.1644 39.6967 31.4914 39.3748 30.9311L40.6542 25.6957L42.2523 26.087C42.5945 26.1703 42.9562 26.0857 43.2274 25.8579C43.4988 25.6315 43.6432 25.2879 43.6188 24.9359L42.8895 14.2439C42.8717 13.9861 42.6901 13.7684 42.4364 13.7059C42.1856 13.6451 41.9235 13.7536 41.7876 13.9751L36.2098 23.1249C36.0257 23.4257 35.9969 23.7967 36.1305 24.1234C36.2682 24.4492 36.5479 24.6911 36.8927 24.7757L38.49 25.1657L37.4055 29.5964L31.8281 28.3132L25.5439 19.1094C24.7927 18.0081 23.6729 17.9326 22.3309 17.9326C22.3309 32.9455 22.3309 31.9944 22.3309 38.783H25.5195C25.5195 48.9236 25.5195 39.4274 25.5195 62.5832H19.1443V45.8193H16.8219V62.5833H10.4466C10.4466 39.4952 10.4466 48.8984 10.4466 38.7831H13.6334C13.6334 31.9979 13.6334 32.9477 13.6334 17.9327C12.0953 17.9327 10.8378 18.104 10.1981 19.5049L1.33999 38.9073C0.731521 40.2416 1.3179 41.816 2.65567 42.425C3.98247 43.0331 5.5619 42.4515 6.17384 41.1117L10.4534 31.7355V36.5542H10.4466C9.21534 36.5542 8.21812 37.552 8.21812 38.7831V62.5833C8.21812 63.8143 9.21548 64.8122 10.4466 64.8122C10.4466 66.5722 11.8731 67.9999 13.6334 67.9999C15.3928 67.9999 16.8219 66.5722 16.8219 64.8122C17.2461 64.8122 17.6442 64.6923 17.984 64.4855C18.3221 64.6922 18.7175 64.8122 19.1443 64.8122C19.1443 66.5722 20.5708 67.9999 22.3311 67.9999C24.0905 67.9999 25.5196 66.5722 25.5196 64.8122C26.7509 64.8122 27.7481 63.8143 27.7481 62.5833V38.7831C27.7481 37.5519 26.7509 36.5542 25.5196 36.5542H25.5127V28.4844L28.0261 32.1665C28.4014 32.7188 28.9752 33.1088 29.6234 33.2576L36.4922 34.8366Z" fill="#F2C94C"/>
<path d="M20.1043 17.9329H15.8645V26.896H20.1043V17.9329Z" fill="#F2C94C"/>
<path d="M11.78 10.5952C11.8157 13.9936 14.5757 16.7382 17.984 16.7382C21.3905 16.7382 24.1531 13.9936 24.1885 10.5952C25.3903 10.5631 26.3613 9.58867 26.3613 8.37646C26.3613 3.75775 22.6015 0 17.984 0C13.3622 0 9.60408 3.75775 9.60408 8.37646C9.60408 9.58881 10.5759 10.5631 11.78 10.5952ZM13.5261 4.16205V4.79329C13.5261 5.40857 14.024 5.90759 14.64 5.90759C15.2551 5.90759 15.7531 5.40857 15.7531 4.79329V2.66123C16.1114 2.5222 16.4824 2.41234 16.8685 2.34081V4.79329C16.8685 5.40857 17.3662 5.90759 17.9841 5.90759C18.5976 5.90759 19.0978 5.40857 19.0978 4.79329V2.34081C19.484 2.41234 19.855 2.5222 20.2108 2.66123V4.79329C20.2108 5.40857 20.7086 5.90759 21.3263 5.90759C21.9415 5.90759 22.4419 5.40857 22.4419 4.79329V4.16205C23.482 5.26329 24.1304 6.73994 24.1304 8.37646H11.8334C11.8334 6.73994 12.4825 5.26329 13.5261 4.16205Z" fill="#F2C94C"/>
<path d="M47.9567 60.481H34.2106C33.5928 60.481 33.095 60.9789 33.095 61.5953V66.5774C33.095 67.1931 33.5928 67.6916 34.2106 67.6916H47.9567C48.5693 67.6916 49.0696 67.1931 49.0696 66.5774V61.5953C49.0696 60.9789 48.5693 60.481 47.9567 60.481Z" fill="#F2C94C"/>
<path d="M65.7871 60.481H52.041C51.4232 60.481 50.9254 60.9789 50.9254 61.5953V66.5774C50.9254 67.1931 51.4231 67.6916 52.041 67.6916H65.7871C66.3998 67.6916 66.9002 67.1931 66.9002 66.5774V61.5953C66.9002 60.9789 66.3998 60.481 65.7871 60.481Z" fill="#F2C94C"/>
<path d="M65.7871 42.6492H52.041C51.4232 42.6492 50.9254 43.1483 50.9254 43.764V48.7458C50.9254 49.3627 51.4231 49.8605 52.041 49.8605H65.7871C66.3998 49.8605 66.9002 49.3627 66.9002 48.7458V43.764C66.9002 43.1482 66.3998 42.6492 65.7871 42.6492Z" fill="#F2C94C"/>
<path d="M47.9567 42.6492H34.2106C33.5928 42.6492 33.095 43.1483 33.095 43.764V48.7458C33.095 49.3627 33.5928 49.8605 34.2106 49.8605H47.9567C48.5693 49.8605 49.0696 49.3627 49.0696 48.7458V43.764C49.0696 43.1482 48.5693 42.6492 47.9567 42.6492Z" fill="#F2C94C"/>
<path d="M42.0098 52.6794V57.6624C42.0098 58.278 42.5076 58.7766 43.1254 58.7766H56.8715C57.485 58.7766 57.9854 58.278 57.9854 57.6624V52.6794C57.9854 52.0637 57.485 51.5647 56.8715 51.5647H43.1254C42.5076 51.5647 42.0098 52.0637 42.0098 52.6794Z" fill="#F2C94C"/>
<path d="M42.0098 34.8487V39.8305C42.0098 40.4475 42.5076 40.9452 43.1254 40.9452H56.8715C57.485 40.9452 57.9854 40.4475 57.9854 39.8305V34.8487C57.9854 34.2332 57.485 33.7341 56.8715 33.7341H43.1254C42.5076 33.7341 42.0098 34.2332 42.0098 34.8487Z" fill="#F2C94C"/>
<path d="M65.7871 51.5647H60.5823C59.967 51.5647 59.4692 52.0637 59.4692 52.6794V57.6624C59.4692 58.278 59.9669 58.7766 60.5823 58.7766H65.7871C66.3997 58.7766 66.9002 58.278 66.9002 57.6624V52.6794C66.9002 52.0637 66.3997 51.5647 65.7871 51.5647Z" fill="#F2C94C"/>
<path d="M65.7871 33.7341H60.5823C59.967 33.7341 59.4692 34.2332 59.4692 34.8487V39.8305C59.4692 40.4475 59.9669 40.9452 60.5823 40.9452H65.7871C66.3997 40.9452 66.9002 40.4475 66.9002 39.8305V34.8487C66.9002 34.2332 66.3997 33.7341 65.7871 33.7341Z" fill="#F2C94C"/>
</svg>
