<svg width="68" height="68" viewBox="0 0 68 68" fill="none" xmlns="http://www.w3.org/2000/svg">
<path d="M15.8909 13.7878L42.9992 6.38839L41.5636 3.48665C40.6244 1.60052 38.3335 0.821633 36.4474 1.76088L12.1797 13.7878H15.8909Z" fill="#F2C94C"/>
<path d="M51.4143 6.60205C51.0784 6.60205 50.7423 6.64787 50.4063 6.7395L44.0378 8.48054L24.5884 13.7877H46.6646H56.2861L55.0949 9.41979C54.6367 7.71693 53.0942 6.60205 51.4143 6.60205Z" fill="#F2C94C"/>
<path d="M60.2646 16.4604H59.3941H58.2104H57.0268H47.9933H14.7989H10.4463H6.78091H6.10129H3.82572C2.6192 16.4604 1.5425 17.0179 0.839978 17.896C0.519259 18.3008 0.274902 18.7666 0.137451 19.2782C0.0534531 19.5989 0 19.9349 0 20.2785V20.7367V25.0893V62.8196C0 64.9272 1.7105 66.6377 3.81808 66.6377H60.2569C62.3646 66.6377 64.075 64.9272 64.075 62.8196V52.1671H41.4185C37.8372 52.1671 34.9278 49.2578 34.9278 45.6764V42.179V40.9954V39.8118V37.185C34.9278 35.4287 35.6302 33.8328 36.7681 32.6645C37.7761 31.6259 39.1277 30.9233 40.6396 30.7477C40.8916 30.7172 41.1513 30.7019 41.4109 30.7019H60.8984H62.082H63.2656H64.075V20.2785C64.0826 18.1709 62.3722 16.4604 60.2646 16.4604Z" fill="#F2C94C"/>
<path d="M66.7553 34.3518C66.3735 34.0006 65.9229 33.7333 65.419 33.5577C65.0294 33.4279 64.6172 33.3516 64.1819 33.3516H64.0826H64.0063H62.8227H58.554H41.4185C39.3108 33.3516 37.6004 35.062 37.6004 37.1696V39.071V40.2546V41.4382V45.6686C37.6004 47.7762 39.3108 49.4867 41.4185 49.4867H64.0826H64.1819C64.6172 49.4867 65.0295 49.4103 65.419 49.2805C65.9229 49.1125 66.3735 48.8376 66.7553 48.4864C67.5189 47.7915 68 46.7835 68 45.6687V37.1696C68 36.0547 67.5189 35.0466 66.7553 34.3518ZM49.3906 42.1789C49.3906 43.2327 48.5354 44.0879 47.4816 44.0879H46.214C45.1602 44.0879 44.305 43.2327 44.305 42.1789V40.9113C44.305 40.3004 44.5875 39.7581 45.038 39.4145C45.3664 39.1625 45.7712 39.0022 46.214 39.0022H46.5347H47.4816C48.5354 39.0022 49.3906 39.8574 49.3906 40.9113V42.1789Z" fill="#F2C94C"/>
</svg>
