<svg width="68" height="68" viewBox="0 0 68 68" fill="none" xmlns="http://www.w3.org/2000/svg">
<path d="M62.3333 3.4H56.6666C56.0411 3.4 55.5333 3.90655 55.5333 4.53329H48.6301L48.7333 3.4C48.7333 1.52548 47.2078 0 45.3333 0H22.6667C20.7922 0 19.2667 1.52548 19.2712 3.5032L19.3653 4.53342H12.4667C12.4667 3.90668 11.959 3.40013 11.3334 3.40013H5.66671C3.16771 3.40013 1.13342 5.43336 1.13342 7.93342C1.13342 10.4336 3.16771 12.4667 5.66671 12.4667H11.3334C11.959 12.4667 12.4667 11.9602 12.4667 11.3334H19.983L21.1639 24.3135C21.3827 26.7229 23.0634 28.6247 25.2847 29.2377L26.8793 38.0085C27.1275 39.3685 28.1668 40.4055 29.4667 40.7048V47.6C29.4667 48.739 29.9042 49.7692 30.6 50.567V63.4666C30.6 63.6898 30.6668 63.9098 30.7905 64.0956L33.0572 67.4956C33.268 67.8106 33.6216 67.9999 34.0002 67.9999C34.3799 67.9999 34.7334 67.8106 34.9431 67.4956L37.2098 64.0956C37.3345 63.9098 37.4003 63.6898 37.4003 63.4666V50.567C38.0973 49.7692 38.5336 48.739 38.5336 47.6V40.7048C39.8346 40.4055 40.8728 39.3685 41.121 38.0075L42.7156 29.2377C44.9381 28.6245 46.6188 26.7229 46.8376 24.3135L48.014 11.3334H55.5337C55.5337 11.9602 56.0415 12.4667 56.667 12.4667H62.3337C64.8339 12.4667 66.867 10.4335 66.867 7.93342C66.8667 5.43323 64.8335 3.4 62.3333 3.4ZM12.4667 9.06671V6.8H19.5715L19.7393 8.64623L19.7767 9.06671H12.4667ZM35.1333 63.1233L34 64.8233L32.8667 63.1233V51.986C32.9064 51.9962 32.946 52.0007 32.9857 52.0098C33.0605 52.0268 33.1365 52.0403 33.2135 52.054C33.4628 52.0982 33.7155 52.1288 33.9705 52.13C33.9808 52.13 33.9898 52.1334 34 52.1334C34.0102 52.1334 34.0193 52.13 34.0295 52.13C34.2845 52.1289 34.5372 52.0982 34.7877 52.054C34.8637 52.0405 34.9395 52.0268 35.0144 52.0098C35.0542 52.0007 35.0949 51.9962 35.1334 51.986V63.1233H35.1333ZM38.8903 37.6017C38.7918 38.1412 38.3236 38.5333 37.7751 38.5333H37.4H30.6H30.2248C29.6774 38.5333 29.2083 38.1411 29.1096 37.6028L27.6306 29.4666H40.3693L38.8903 37.6017ZM30.6 20.4C29.9745 20.4 29.4667 19.8935 29.4667 19.2667C29.4667 18.64 29.9745 18.1334 30.6 18.1334H37.4C38.0256 18.1334 38.5333 18.64 38.5333 19.2667C38.5333 19.8935 38.0256 20.4 37.4 20.4H30.6ZM36.2667 23.8C36.2667 24.4267 35.759 24.9333 35.1334 24.9333H32.8667C32.2412 24.9333 31.7334 24.4267 31.7334 23.8C31.7334 23.1733 32.2412 22.6667 32.8667 22.6667H35.1334C35.759 22.6667 36.2667 23.1733 36.2667 23.8ZM39.6667 15.8667H28.3334C27.7079 15.8667 27.2001 15.3602 27.2001 14.7334C27.2001 14.1067 27.7079 13.6001 28.3334 13.6001H39.6667C40.2923 13.6001 40.8 14.1067 40.8 14.7334C40.8 15.3602 40.2923 15.8667 39.6667 15.8667ZM55.5333 9.06671H48.2233L48.4296 6.8H55.5333V9.06671Z" fill="black"/>
</svg>
