<svg width="68" height="68" viewBox="0 0 68 68" fill="none" xmlns="http://www.w3.org/2000/svg">
<g clip-path="url(#clip0)">
<path d="M67.829 34.9769C59.7316 -0.0547574 30.1443 5.98155 30.1443 5.98155C30.1443 5.98155 27.1272 4.94882 32.0584 2.59394C23.0774 0.313606 17.4862 8.48334 17.4862 8.48334C17.4862 8.48334 15.5721 8.5557 15.5721 5.09792C13.2895 5.38954 15.4251 11.4237 15.4251 11.4237C15.4251 11.4237 9.09503 11.5728 7.62158 10.5444C6.88705 12.8971 12.7151 12.4235 14.3946 13.0462C-15.1949 15.1051 9.97866 55.5876 10.1256 52.3491C5.70961 33.3609 16.3088 26.4432 16.3088 26.4432C16.3088 26.4432 25.2876 35.4965 32.5013 34.6896C24.8469 31.7449 26.3423 30.2715 26.3423 30.2715C26.3423 30.2715 38.61 31.302 50.459 25.7086C55.4626 25.9279 59.5847 36.7134 60.7621 50.1455C66.3205 46.1352 64.8843 34.9813 64.8843 34.9813C64.8843 34.9813 68.8595 38.2176 67.829 34.9769Z" fill="black"/>
<path d="M46.6855 59.747C44.7845 58.1727 40.3663 53.0924 34.808 58.5586C29.4163 53.6471 25.1451 58.5345 23.2857 60.0781C16.3307 63.2793 15.9996 59.3611 15.833 58.3086C10.5904 67.7501 27.3158 65.5947 29.7452 65.5947C32.054 65.5947 35.0777 64.2134 35.3737 64.0774C36.4919 64.5335 38.5464 65.2636 40.226 65.2636C42.651 65.2636 59.3786 67.4168 54.136 57.9797C53.9738 59.0278 53.6405 62.9482 46.6855 59.747Z" fill="black"/>
</g>
<defs>
<clipPath id="clip0">
<rect width="68" height="68" fill="white"/>
</clipPath>
</defs>
</svg>
