<svg width="68" height="68" viewBox="0 0 68 68" fill="none" xmlns="http://www.w3.org/2000/svg">
<path d="M56.1137 35.9408C55.5671 35.9408 55.1241 36.3839 55.1241 36.9304C55.1241 37.6233 54.5604 38.1869 53.8675 38.1869C53.1748 38.1869 52.611 37.6233 52.611 36.9304C52.611 36.3837 52.1679 35.9408 51.6214 35.9408C51.0749 35.9408 50.6318 36.3839 50.6318 36.9304C50.6318 38.7146 52.0835 40.1661 53.8675 40.1661C55.6516 40.1661 57.1033 38.7145 57.1033 36.9304C57.1033 36.3836 56.6602 35.9408 56.1137 35.9408Z" fill="black"/>
<path d="M65.4027 36.1024L62.6174 35.2102C62.2606 35.0958 61.9795 34.8111 61.8654 34.4484C61.2784 32.5819 60.3925 30.8298 59.2324 29.2402C58.7037 28.5158 58.1157 27.8239 57.4734 27.1653C57.8843 25.3627 58.1077 23.3225 58.0788 21.56C58.0373 19.0385 57.5334 17.5597 56.5384 17.0385C56.0025 16.7575 54.3716 15.9037 45.5439 19.9447C45.3349 20.0403 45.1396 20.1581 44.9589 20.2931C44.3638 20.1332 43.7555 19.9852 43.1435 19.8524C43.0698 19.8363 42.9938 19.8221 42.9196 19.8064C43.6349 18.2438 44.0526 16.5466 44.1311 14.7945C44.1555 14.2484 43.7328 13.7859 43.1866 13.7616C42.642 13.7345 42.1781 14.1598 42.1538 14.7059C42.0248 17.5868 40.8298 20.2973 38.789 22.3383C37.5696 23.5576 36.1419 24.4433 34.6202 25.0011C31.9814 24.6309 29.2935 24.6309 26.6547 25.0011C25.1329 24.4433 23.7053 23.5576 22.486 22.3383C20.3086 20.1609 19.1095 17.266 19.1095 14.1868C19.1095 11.1074 20.3086 8.21258 22.486 6.03525C24.6633 3.85779 27.5583 2.65863 30.6375 2.65863C33.7166 2.65863 36.6116 3.85779 38.789 6.03525C39.6639 6.91022 40.387 7.9087 40.938 9.00268C41.1838 9.4909 41.779 9.68746 42.267 9.44149C42.7553 9.19579 42.9517 8.60066 42.7059 8.11257C42.06 6.82974 41.213 5.66006 40.1887 4.63554C37.6375 2.08434 34.2454 0.679321 30.6376 0.679321C27.0297 0.679321 23.6377 2.08434 21.0865 4.63554C18.5353 7.18687 17.1303 10.5788 17.1303 14.1866C17.1303 17.7945 18.5353 21.1865 21.0865 23.7377C21.8224 24.4736 22.623 25.1065 23.4698 25.6367C23.4701 25.6367 23.4704 25.6365 23.4706 25.6365C22.8553 25.7964 22.2446 25.976 21.6407 26.1779C21.1224 26.3512 20.8427 26.9118 21.016 27.4303C21.1892 27.9486 21.75 28.2284 22.2683 28.0552C27.6652 26.2509 33.6099 26.2509 39.0069 28.0552C39.111 28.09 39.2167 28.1064 39.3207 28.1064C39.7347 28.1064 40.1207 27.8445 40.2592 27.4303C40.4325 26.9119 40.1528 26.3512 39.6344 26.1779C39.0305 25.976 38.4199 25.7963 37.8045 25.6365C37.8048 25.6365 37.8051 25.6367 37.8053 25.6367C38.6523 25.1065 39.4527 24.4736 40.1887 23.7377C40.8397 23.0866 41.4144 22.3757 41.9134 21.6201C42.1862 21.6731 42.457 21.7286 42.7238 21.7865C43.0792 21.8637 43.433 21.9466 43.7836 22.0336C43.7726 22.0766 43.7613 22.1195 43.7522 22.1632C43.2695 24.4536 43.3009 26.4792 43.8453 28.1836C44.3345 29.7156 45.2176 30.9567 46.4696 31.8727C47.9453 32.9522 49.7269 33.4185 51.3407 33.4185C52.5552 33.4185 53.675 33.1542 54.4974 32.6885C55.4276 32.1616 56.2069 31.0514 56.8238 29.3846C57.109 29.7174 57.3793 30.0584 57.634 30.4074C58.6669 31.8224 59.4554 33.3819 59.9776 35.0423C60.2843 36.0175 61.0455 36.7849 62.0139 37.0953L64.7992 37.9875C65.5301 38.2217 66.0211 38.8944 66.0211 39.6618V44.2803C66.0211 45.0477 65.5301 45.7204 64.7992 45.9546L60.3116 47.392C59.5936 47.6222 58.986 48.1156 58.6007 48.7815C56.8376 51.8285 54.0657 54.3499 50.3614 56.2758C49.9335 56.4986 49.6371 56.8969 49.5478 57.3689L48.1105 64.9794C48.0708 65.1891 47.8871 65.3412 47.6737 65.3412H43.0004C42.787 65.3412 42.6033 65.189 42.5636 64.9794L41.7675 60.7734C41.6108 59.9458 40.8347 59.3961 39.9993 59.5227C37.9862 59.8271 35.912 59.9813 33.8344 59.9813C32.2887 59.9813 30.7628 59.8951 29.2988 59.725C28.4893 59.6319 27.7352 60.1837 27.584 60.983L26.8275 64.9794C26.7878 65.1891 26.6041 65.3412 26.3906 65.3412H21.7174C21.5039 65.3412 21.3203 65.189 21.28 64.9762L19.8961 57.7882C19.807 57.325 19.5161 56.9313 19.0976 56.7077C12.7832 53.3368 9.44563 47.705 9.44563 40.4216C9.44563 36.7416 10.2507 33.4876 11.8385 30.7495C13.3202 28.1944 15.4842 26.0817 18.2705 24.47C18.7436 24.1963 18.9052 23.5909 18.6316 23.1177C18.358 22.6446 17.7526 22.4833 17.2794 22.7566C11.8768 25.882 8.6182 30.7036 7.72105 36.8276V36.8274C7.62583 36.8188 7.53047 36.8106 7.43551 36.8007C7.45277 36.14 7.33324 35.4733 7.07293 34.8262C6.49878 33.399 5.31941 32.3689 4.06818 32.202C3.08218 32.07 2.14386 32.4886 1.49268 33.3489C0.548516 34.5966 0.702445 35.5839 0.997688 36.1925C1.49613 37.2195 2.77737 37.946 4.90357 38.4027C4.84513 38.4902 4.78085 38.5782 4.71046 38.6665C3.45419 40.242 1.97413 40.5904 1.01309 40.6232C0.4505 40.6422 0 41.0939 0 41.6569V41.6617C0 42.217 0.438148 42.6699 0.992906 42.6952C1.06396 42.6985 1.1382 42.7003 1.2155 42.7003C2.43153 42.7003 4.38321 42.2518 6.25826 39.9006C6.5543 39.5295 6.79548 39.138 6.98089 38.7334C7.16762 38.7545 7.34705 38.7726 7.51891 38.7885C7.51891 38.7881 7.51891 38.7879 7.51905 38.7875C7.48531 39.3238 7.46659 39.8679 7.46659 40.4216C7.46659 44.5425 8.449 48.2168 10.3863 51.3428C12.1727 54.2248 14.7302 56.5846 17.9905 58.3593L19.3359 65.3473C19.5523 66.4906 20.5538 67.3204 21.7174 67.3204H26.3906C27.5542 67.3204 28.5557 66.4906 28.7721 65.3473L29.4561 61.7338C30.8766 61.8842 32.3474 61.9605 33.8343 61.9605C35.8742 61.9605 37.9119 61.8184 39.8977 61.5379L40.6187 65.3476C40.8352 66.4908 41.8367 67.3205 43.0002 67.3205H47.6734C48.837 67.3205 49.8386 66.4907 50.055 65.3471L51.4545 57.9373C55.408 55.8467 58.3881 53.1004 60.3136 49.7727C60.4524 49.5328 60.6661 49.3568 60.9153 49.277L65.4027 47.8396C66.9562 47.3417 68 45.9114 68 44.2801V39.6615C68 38.0303 66.9562 36.6001 65.4027 36.1024ZM55.951 24.3409C55.5701 27.5983 54.5484 30.3847 53.5217 30.9661C52.3548 31.6272 49.6607 31.7548 47.638 30.2751C45.6129 28.7937 44.9388 26.1298 45.6886 22.5712C45.6886 22.5711 45.6886 22.5711 45.6886 22.5711C45.7639 22.2137 46.0178 21.9045 46.3678 21.7443C51.3222 19.4764 54.1786 18.7346 55.2398 18.7346C55.3999 18.7346 55.5192 18.7515 55.5986 18.7826C55.9174 19.1223 56.3355 21.0536 55.951 24.3409ZM2.77857 35.3282C2.67617 35.1171 2.91789 34.7459 3.07116 34.5432C3.31407 34.2223 3.53786 34.1567 3.70693 34.1567C3.74266 34.1567 3.77599 34.1596 3.80654 34.1637C4.26155 34.2244 4.89905 34.7251 5.2368 35.5647C5.31635 35.7623 5.41968 36.0897 5.44385 36.4979C4.07389 36.2141 3.00953 35.8049 2.77857 35.3282Z" fill="black"/>
<path d="M31.5985 13.0525V9.51118C32.8197 9.59843 33.2734 10.1566 33.692 10.1566C34.2154 10.1566 34.4597 9.49378 34.4597 9.16228C34.4597 8.30736 32.7848 7.94107 31.5985 7.90614V7.43492C31.5985 7.22561 31.3367 7.03369 31.0751 7.03369C30.7784 7.03369 30.5691 7.22561 30.5691 7.43492V7.9408C28.9117 8.11532 27.2543 8.98763 27.2543 11.1858C27.2543 13.4189 28.9989 14.047 30.5691 14.6052V18.705C28.7895 18.5654 28.3185 17.3442 27.7428 17.3442C27.3066 17.3442 26.9404 17.9199 26.9404 18.3387C26.9404 19.1935 28.4058 20.3624 30.5691 20.3973V20.9381C30.5691 21.1474 30.7785 21.3393 31.0751 21.3393C31.3368 21.3393 31.5985 21.1474 31.5985 20.9381V20.345C33.4827 20.0832 34.7736 18.8969 34.7736 16.751C34.7736 14.3785 33.1163 13.6107 31.5985 13.0525ZM30.6737 12.7211C29.7491 12.3722 28.9989 12.0059 28.9989 11.0116C28.9989 10.1043 29.6967 9.66816 30.6737 9.54611V12.7211ZM31.4937 18.6701V14.989C32.3485 15.3553 33.0289 15.8438 33.0289 16.9428C33.0289 17.9375 32.4357 18.4957 31.4937 18.6701Z" fill="black"/>
</svg>
