<svg width="68" height="68" viewBox="0 0 68 68" fill="none" xmlns="http://www.w3.org/2000/svg">
<path d="M58.9333 47.6H57.1585C55.9138 47.6011 54.6864 47.8908 53.5727 48.4466C51.9521 49.2521 50.0479 49.2521 48.4273 48.4466C47.7809 48.1294 47.0948 47.9006 46.3873 47.7666L48.5962 30.6H51C51.6259 30.6 52.1333 30.0926 52.1333 29.4667V24.9333C52.1333 24.3074 51.6259 23.8 51 23.8H46.4667V20.4C46.4667 20.0994 46.3471 19.8112 46.1346 19.5987L40.8 14.2641V10.744L42.5181 9.3704L45.4523 15.2399L47.481 14.2267L44.3281 7.922L45.73 6.8H49.8667C50.4925 6.8 51 6.29255 51 5.66667V1.13333C51 0.50745 50.4925 0 49.8667 0H38.5333C32.9029 0.0068 28.3401 4.5696 28.3333 10.2C28.3333 10.8259 28.8408 11.3333 29.4667 11.3333H31.7333V14.2641L28.6654 17.3321C28.4529 17.5446 28.3333 17.8327 28.3333 18.1333V23.8H26.0667V14.7333C26.065 14.5929 26.0369 14.4542 25.9839 14.3242C25.9632 14.2801 25.9397 14.2374 25.9137 14.1961C25.8865 14.1368 25.8546 14.0795 25.8185 14.025L21.5333 8.67V1.13333C21.5333 0.50745 21.0259 0 20.4 0H13.6C12.9741 0 12.4667 0.50745 12.4667 1.13333V8.67L8.18153 14.025C8.1454 14.0795 8.11353 14.1368 8.08633 14.1961C8.06026 14.2374 8.03675 14.2801 8.01606 14.3242C7.96308 14.4542 7.93503 14.5929 7.93333 14.7333V23.8H3.4C2.77411 23.8 2.26666 24.3074 2.26666 24.9333V29.4667C2.26666 30.0926 2.77411 30.6 3.4 30.6H5.8038L10.2091 64.7451C10.282 65.3103 10.7634 65.7335 11.3333 65.7333H38.012C39.2973 67.1741 41.1359 67.9986 43.0667 68H44.8415C46.0861 67.9989 47.3135 67.7092 48.4273 67.1534C50.0479 66.3479 51.9521 66.3479 53.5727 67.1534C54.6864 67.7092 55.9138 67.9989 57.1585 68H58.9333C62.6874 67.9963 65.7296 64.954 65.7333 61.2V54.4C65.7296 50.646 62.6874 47.6037 58.9333 47.6ZM46.4667 2.26667H48.7333V4.53333H46.4667V2.26667ZM49.8667 26.0667V28.3333H34V26.0667H49.8667ZM30.6805 9.06667C31.249 5.16587 34.5913 2.27163 38.5333 2.26667H44.2V5.12267L39.2689 9.06667H30.6805ZM38.5333 11.3333V13.6H34V11.3333H38.5333ZM30.6 18.6025L33.3359 15.8667H39.1975L44.2 20.8692V23.8H30.6V18.6025ZM29.4667 26.0667H31.7333V34C31.7309 34.4317 31.974 34.827 32.3601 35.02L39.1601 38.42C39.4917 38.5835 39.743 38.874 39.8571 39.2258C39.9745 39.6033 39.9337 40.0123 39.7437 40.3591C39.4176 41.0135 38.6229 41.2795 37.9685 40.9533C37.9675 40.9529 37.9665 40.9523 37.9655 40.9519L33.3642 38.6512C32.8018 38.3764 32.1232 38.6096 31.8484 39.172C31.7731 39.3261 31.7338 39.4953 31.7333 39.6667V51C31.7333 52.2519 30.7186 53.2667 29.4667 53.2667V43.0667H27.2V53.2667H24.9333V43.0667H22.6667V53.2667H20.4V43.0667H18.1333V53.2667C16.8814 53.2667 15.8667 52.2519 15.8667 51V26.0667H29.4667ZM14.7333 2.26667H19.2667V7.93333H14.7333V2.26667ZM14.144 10.2H19.856L22.576 13.6H11.424L14.144 10.2ZM10.2 15.8667H23.8V23.8H10.2V15.8667ZM4.53333 28.3333V26.0667H13.6V28.3333H4.53333ZM36.2667 54.4V61.2C36.2686 61.9726 36.4028 62.7392 36.6633 63.4667H12.3295L8.0886 30.6H13.6V51C13.6 53.5037 15.6297 55.5333 18.1333 55.5333H29.4667C31.9703 55.5333 34 53.5037 34 51V41.5004L36.9603 42.9805C38.7491 43.8634 40.9149 43.129 41.7978 41.3402C41.8014 41.3328 41.805 41.3253 41.8087 41.3179C42.2477 40.4477 42.3223 39.4383 42.0161 38.5129C41.714 37.5871 41.0524 36.8219 40.1801 36.3891L34 33.2996V30.6H46.3114L44.1173 47.6H43.0667C39.3126 47.6037 36.2703 50.646 36.2667 54.4ZM63.4667 61.2C63.4667 63.7037 61.437 65.7333 58.9333 65.7333H57.1585C56.2659 65.7321 55.3857 65.5242 54.587 65.1259C52.3274 64.0032 49.6726 64.0032 47.413 65.1259C46.6143 65.5242 45.7341 65.7321 44.8415 65.7333H43.0667C40.563 65.7333 38.5333 63.7037 38.5333 61.2V59.4547C39.7762 60.5777 41.3916 61.1996 43.0667 61.2H44.8415C46.0861 61.1989 47.3135 60.9092 48.4273 60.3534C50.0479 59.5479 51.9521 59.5479 53.5727 60.3534C54.6864 60.9092 55.9138 61.1989 57.1585 61.2H58.9333C60.6084 61.1996 62.2238 60.5777 63.4667 59.4547V61.2ZM58.9333 58.9333H57.1585C56.2659 58.9321 55.3857 58.7242 54.587 58.3259C52.3274 57.2032 49.6726 57.2032 47.413 58.3259C46.6143 58.7242 45.7341 58.9321 44.8415 58.9333H43.0667C40.563 58.9333 38.5333 56.9037 38.5333 54.4C38.5333 51.8963 40.563 49.8667 43.0667 49.8667H44.8415C45.7341 49.8679 46.6143 50.0758 47.413 50.4741C49.6727 51.5961 52.3273 51.5961 54.587 50.4741C55.3857 50.0758 56.2659 49.8679 57.1585 49.8667H58.9333C61.437 49.8667 63.4667 51.8963 63.4667 54.4C63.4667 56.9037 61.437 58.9333 58.9333 58.9333Z" fill="black"/>
<path d="M60.0667 52.1333H57.8V54.4H60.0667V52.1333Z" fill="black"/>
<path d="M48.7333 52.1333H46.4667V54.4H48.7333V52.1333Z" fill="black"/>
<path d="M44.2 53.2666H41.9333V55.5333H44.2V53.2666Z" fill="black"/>
<path d="M55.5333 53.2666H53.2667V55.5333H55.5333V53.2666Z" fill="black"/>
</svg>
