<svg width="68" height="68" viewBox="0 0 68 68" fill="none" xmlns="http://www.w3.org/2000/svg">
<path d="M59.5005 12.3516C60.234 12.3516 60.8286 11.757 60.8286 11.0234V3.98438C60.8286 1.78739 59.0413 0 56.8443 0H3.98489C1.78791 0 0.000518799 1.78739 0.000518799 3.98438V64.0156C0.000518799 66.2126 1.78791 68 3.98489 68H56.8443C59.0413 68 60.8286 66.2126 60.8286 64.0156V60.2969C60.8286 59.5634 60.234 58.9688 59.5005 58.9688C58.767 58.9688 58.1724 59.5634 58.1724 60.2969V64.0156C58.1724 64.748 57.5766 65.3438 56.8443 65.3438H3.98489C3.25257 65.3438 2.65677 64.748 2.65677 64.0156V3.98438C2.65677 3.25205 3.25257 2.65625 3.98489 2.65625H56.8443C57.5766 2.65625 58.1724 3.25205 58.1724 3.98438V11.0234C58.1724 11.757 58.767 12.3516 59.5005 12.3516Z" fill="black"/>
<path d="M53.1264 6.375H7.70288C6.96936 6.375 6.37476 6.9696 6.37476 7.70312V35.4609C6.37476 36.1945 6.96936 36.7891 7.70288 36.7891C8.4364 36.7891 9.03101 36.1945 9.03101 35.4609V9.03125H51.7982V11.1562C51.7982 11.8898 52.393 12.4844 53.1264 12.4844C53.8599 12.4844 54.4545 11.8898 54.4545 11.1562V7.70312C54.4545 6.9696 53.8599 6.375 53.1264 6.375Z" fill="black"/>
<path d="M8.64129 39.436C8.39426 39.189 8.05293 39.0469 7.7023 39.0469C7.35301 39.0469 7.01035 39.189 6.76332 39.436C6.51629 39.683 6.37418 40.0257 6.37418 40.375C6.37418 40.7243 6.51629 41.067 6.76332 41.314C7.01035 41.561 7.35301 41.7031 7.7023 41.7031C8.05293 41.7031 8.39426 41.561 8.64129 41.314C8.88965 41.067 9.03043 40.7243 9.03043 40.375C9.03043 40.0257 8.88965 39.683 8.64129 39.436Z" fill="black"/>
<path d="M53.1264 56.0469C52.3928 56.0469 51.7982 56.6415 51.7982 57.375V58.9688H9.03101V45.4883C9.03101 44.7548 8.4364 44.1602 7.70288 44.1602C6.96936 44.1602 6.37476 44.7548 6.37476 45.4883V60.2969C6.37476 61.0304 6.96936 61.625 7.70288 61.625H53.1264C53.8599 61.625 54.4545 61.0304 54.4545 60.2969V57.375C54.4545 56.6415 53.8599 56.0469 53.1264 56.0469Z" fill="black"/>
<path d="M41.1596 46.9277C40.641 46.4089 39.8002 46.4089 39.2814 46.9275L36.6565 49.5526L35.0249 47.9208C33.9947 46.8907 32.3187 46.8907 31.2885 47.9208L30.2268 48.9825C29.7081 49.5012 29.7081 50.3421 30.2268 50.8609C30.7454 51.3795 31.5864 51.3795 32.1051 50.8609L33.1568 49.8093L34.7884 51.441C35.3034 51.9561 35.98 52.2136 36.6565 52.2136C37.3331 52.2136 38.0096 51.9561 38.5246 51.441L41.1596 48.806C41.6783 48.2874 41.6783 47.4464 41.1596 46.9277Z" fill="black"/>
<path d="M67.3891 27.8617C67.9744 26.9486 68.1491 25.8239 67.8684 24.7763C67.5876 23.7287 66.8741 22.8422 65.9106 22.3441C65.4928 22.1282 65.237 21.6851 65.2589 21.2153C65.3092 20.1318 64.8983 19.0707 64.1314 18.3037C63.3646 17.5368 62.3037 17.1252 61.2198 17.1762C60.7478 17.1991 60.307 16.9422 60.091 16.5245C59.593 15.5611 58.7064 14.8475 57.6588 14.5667C56.6108 14.2858 55.4865 14.4608 54.5736 15.0461C54.1777 15.3 53.6661 15.2999 53.2703 15.0461C52.3572 14.4606 51.2328 14.286 50.1851 14.5667C49.1374 14.8475 48.2509 15.5611 47.7529 16.5245C47.5369 16.9424 47.0926 17.1975 46.6241 17.1762C45.5402 17.1256 44.4794 17.5368 43.7126 18.3037C42.9456 19.0707 42.5347 20.1318 42.585 21.2152C42.6069 21.6851 42.351 22.1282 41.9333 22.3441C40.9699 22.8422 40.2563 23.7285 39.9755 24.7763C39.8415 25.2761 39.8124 25.7934 39.8811 26.2969H16.7053C15.9718 26.2969 15.3772 26.8915 15.3772 27.625C15.3772 28.3585 15.9718 28.9531 16.7053 28.9531H40.5596C40.531 29.026 40.498 29.0976 40.4547 29.1651C39.8694 30.0782 39.6946 31.2028 39.9754 32.2505C40.0139 32.3943 40.0613 32.5348 40.1157 32.6719H16.7049C15.9714 32.6719 15.3768 33.2665 15.3768 34C15.3768 34.7335 15.9714 35.3281 16.7049 35.3281H42.5057C42.5635 35.4799 42.5924 35.6437 42.5846 35.8114C42.5343 36.8949 42.9452 37.9561 43.7122 38.7231C44.479 39.4899 45.5398 39.9016 46.6237 39.8505C47.0929 39.8275 47.5365 40.0844 47.7525 40.5022C47.912 40.8109 48.1118 41.0934 48.3436 41.3448V53.7485C48.3436 54.2851 48.6665 54.7689 49.1619 54.9749C49.6571 55.1809 50.2279 55.0686 50.6085 54.6901L53.9217 51.394L57.235 54.6901C57.4889 54.9427 57.8275 55.0767 58.172 55.0767C58.3436 55.0767 58.5168 55.0433 58.6816 54.9748C59.177 54.7688 59.4999 54.285 59.4999 53.7484V41.3447C59.7316 41.0934 59.9315 40.8107 60.091 40.5021C60.307 40.0843 60.7506 39.829 61.2198 39.8504C62.3043 39.9016 63.3644 39.4899 64.1313 38.7229C64.8983 37.9559 65.3092 36.8948 65.2589 35.8113C65.237 35.3415 65.4929 34.8985 65.9106 34.6825C66.874 34.1845 67.5876 33.2981 67.8684 32.2503C68.1491 31.2026 67.9744 30.078 67.3891 29.1648C67.1351 28.7692 67.1351 28.2576 67.3891 27.8617ZM56.8436 50.554L54.8583 48.5791C54.3402 48.0636 53.5031 48.0636 52.985 48.5791L50.9999 50.554V42.5863C51.7945 42.6238 52.5908 42.4161 53.2702 41.9807C53.6661 41.7268 54.1777 41.7269 54.5734 41.9807C55.2007 42.3828 55.9277 42.5912 56.6613 42.5912C56.7221 42.5912 56.7828 42.5882 56.8436 42.5853V50.554ZM65.3026 31.563C65.2136 31.8952 64.9962 32.1652 64.6907 32.3231C63.3541 33.0141 62.5354 34.4318 62.6054 35.9349C62.6215 36.2785 62.4962 36.6017 62.2531 36.845C62.0099 37.0881 61.6867 37.213 61.3432 37.1973C59.8392 37.1277 58.4224 37.9459 57.7313 39.2826C57.5734 39.5882 57.3034 39.8055 56.9711 39.8945C56.6391 39.9833 56.2964 39.9303 56.007 39.7447C55.3735 39.3385 54.6477 39.1356 53.9216 39.1356C53.1958 39.1356 52.4697 39.3387 51.8363 39.7447C51.5468 39.9302 51.2043 39.9833 50.8721 39.8945C50.5398 39.8055 50.2699 39.5881 50.1119 39.2826C49.4208 37.946 48.0043 37.1271 46.5 37.1973C46.1572 37.2131 45.8333 37.0881 45.5901 36.845C45.3468 36.6017 45.2217 36.2785 45.2378 35.9348C45.2871 34.8739 44.8922 33.8568 44.1866 33.1066C44.1659 33.0839 44.1447 33.0615 44.1224 33.0403C43.8422 32.7562 43.5175 32.5118 43.1525 32.3231C42.847 32.1652 42.6297 31.8953 42.5408 31.563C42.4518 31.2307 42.5049 30.8882 42.6906 30.5988C43.5027 29.332 43.5027 27.695 42.6906 26.4282C42.505 26.1387 42.4518 25.7962 42.5408 25.4639C42.6297 25.1317 42.8472 24.8617 43.1526 24.7038C44.4893 24.0128 45.3078 22.5951 45.2379 21.0919C45.2218 20.7484 45.3471 20.4252 45.5903 20.1819C45.8335 19.9386 46.1572 19.8138 46.5002 19.8296C48.0043 19.8993 49.4211 19.081 50.112 17.7443C50.2699 17.4387 50.5399 17.2214 50.8722 17.1324C51.2044 17.0436 51.5469 17.0965 51.8363 17.2822C53.1032 18.0945 54.7404 18.0945 56.0069 17.2822C56.2964 17.0967 56.6388 17.0433 56.9711 17.1324C57.3034 17.2214 57.5733 17.4388 57.7313 17.7443C58.4224 19.0809 59.8399 19.8997 61.3432 19.8296C61.6869 19.8139 62.0099 19.9386 62.2531 20.1819C62.4964 20.4252 62.6215 20.7484 62.6054 21.0919C62.5356 22.595 63.3539 24.0128 64.6908 24.7038C64.9963 24.8617 65.2136 25.1316 65.3026 25.4639C65.3915 25.7962 65.3384 26.1387 65.1528 26.4281C64.3406 27.6949 64.3406 29.3319 65.1528 30.5987C65.3384 30.8882 65.3917 31.2307 65.3026 31.563Z" fill="black"/>
<path d="M60.2379 24.9007C59.7193 24.3821 58.8783 24.3821 58.3597 24.9007L53.9515 29.309L52.1967 27.5542C51.678 27.0355 50.837 27.0355 50.3183 27.5542C49.7996 28.0728 49.7996 28.9138 50.3183 29.4325L53.0123 32.1265C53.2716 32.3859 53.6115 32.5155 53.9514 32.5155C54.2912 32.5155 54.6312 32.3859 54.8905 32.1265L60.2379 26.7791C60.7566 26.2604 60.7566 25.4195 60.2379 24.9007Z" fill="black"/>
<path d="M16.213 16.061C15.9659 15.814 15.6233 15.6719 15.274 15.6719C14.9247 15.6719 14.582 15.814 14.335 16.061C14.088 16.308 13.9458 16.6507 13.9458 17C13.9458 17.3493 14.088 17.692 14.335 17.939C14.582 18.186 14.9247 18.3281 15.274 18.3281C15.6233 18.3281 15.9659 18.186 16.213 17.939C16.46 17.692 16.6021 17.3493 16.6021 17C16.6021 16.6507 16.46 16.308 16.213 16.061Z" fill="black"/>
<path d="M26.6949 15.6719H20.2313C19.4978 15.6719 18.9032 16.2665 18.9032 17C18.9032 17.7335 19.4978 18.3281 20.2313 18.3281H26.6949C27.4284 18.3281 28.023 17.7335 28.023 17C28.023 16.2665 27.4284 15.6719 26.6949 15.6719Z" fill="black"/>
<path d="M40.2207 39.0469H25.0373C24.3038 39.0469 23.7092 39.6415 23.7092 40.375C23.7092 41.1085 24.3038 41.7031 25.0373 41.7031H40.2206C40.9541 41.7031 41.5487 41.1085 41.5487 40.375C41.5487 39.6415 40.9542 39.0469 40.2207 39.0469Z" fill="black"/>
</svg>
