<svg width="68" height="68" viewBox="0 0 68 68" fill="none" xmlns="http://www.w3.org/2000/svg">
<path d="M56.8215 22.5782C56.1599 22.5786 55.5105 22.7556 54.9403 23.0909V16.3276C54.9375 13.9782 54.0029 11.7258 52.3416 10.0646C50.6803 8.40341 48.4279 7.46898 46.0785 7.46631H21.9215C19.5721 7.46898 17.3197 8.40341 15.6584 10.0646C13.9971 11.7258 13.0625 13.9782 13.0597 16.3276V23.0914C12.4919 22.7587 11.8463 22.5819 11.1882 22.579C10.5301 22.5761 9.8829 22.7471 9.31219 23.0748C8.74148 23.4026 8.26751 23.8753 7.9383 24.4451C7.60909 25.015 7.43633 25.6617 7.43752 26.3198V42.8677C7.43892 44.0477 7.9083 45.179 8.74268 46.0134C9.57707 46.8478 10.7083 47.3172 11.8883 47.3186H12.5837L7.51189 59.2403C7.45162 59.3817 7.42735 59.5358 7.44125 59.6888C7.45515 59.8419 7.50679 59.9891 7.59154 60.1172C7.67629 60.2454 7.79151 60.3506 7.92688 60.4233C8.06225 60.496 8.21354 60.534 8.36721 60.5339H10.8465C11.0087 60.5339 11.1679 60.4915 11.3086 60.411C11.4493 60.3305 11.5666 60.2147 11.6487 60.0749L14.0266 56.0183H53.975L56.3529 60.0749C56.4351 60.2147 56.5523 60.3305 56.693 60.411C56.8337 60.4915 56.993 60.5339 57.1551 60.5339H59.6344C59.7881 60.534 59.9394 60.496 60.0747 60.4233C60.2101 60.3506 60.3253 60.2454 60.4101 60.1172C60.4948 59.9891 60.5465 59.8419 60.5604 59.6888C60.5743 59.5358 60.55 59.3817 60.4897 59.2403L55.4163 47.3186H56.1117C57.2917 47.3172 58.423 46.8478 59.2574 46.0134C60.0917 45.179 60.5611 44.0477 60.5625 42.8677V26.3198C60.5615 25.3279 60.1671 24.3769 59.4657 23.6754C58.7644 22.974 57.8134 22.5794 56.8215 22.5782ZM56.8215 24.4376C57.3203 24.4382 57.7986 24.6366 58.1514 24.9894C58.5042 25.3421 58.7026 25.8204 58.7031 26.3193V39.9894H54.9403V26.3198C54.9407 25.821 55.139 25.3426 55.4917 24.9897C55.8443 24.6369 56.3226 24.4383 56.8215 24.4376ZM14.9191 16.3276C14.9219 14.4713 15.6606 12.6919 16.9732 11.3794C18.2858 10.0669 20.0653 9.32835 21.9215 9.32568H46.0785C47.9348 9.32835 49.7142 10.0669 51.0268 11.3794C52.3394 12.6919 53.0781 14.4713 53.0809 16.3276V34.8995C52.1 33.4565 50.7812 32.2753 49.2394 31.4586C47.6975 30.6419 45.9793 30.2146 44.2345 30.2139H23.7655C22.0207 30.2145 20.3025 30.6418 18.7606 31.4585C17.2187 32.2752 15.8999 33.4565 14.9191 34.8995V16.3276ZM53.031 39.9894H14.969C15.2013 37.8176 16.2278 35.8082 17.8515 34.3471C19.4751 32.8861 21.5813 32.0765 23.7655 32.0738H44.2345C46.4188 32.0765 48.525 32.8861 50.1486 34.3471C51.7722 35.8082 52.7987 37.8176 53.031 39.9894ZM11.1786 24.4376C11.6774 24.4383 12.1555 24.6368 12.5082 24.9896C12.8608 25.3423 13.0592 25.8205 13.0597 26.3193V39.9894H9.29689V26.3198C9.29731 25.8209 9.49568 25.3424 9.84846 24.9896C10.2012 24.6367 10.6796 24.4382 11.1786 24.4376ZM10.3137 58.674H9.77502L14.6041 47.3186H16.9708L10.3137 58.674ZM48.875 47.3186L51.093 51.1064H16.907L19.125 47.3186H48.875ZM15.1167 54.1589L15.8175 52.9636H52.1826L52.8833 54.1589H15.1167ZM58.2266 58.6746H57.6863L51.0292 47.3186H53.396L58.2266 58.6746ZM58.7047 42.8677C58.7039 43.5548 58.4306 44.2134 57.9448 44.6992C57.459 45.185 56.8003 45.4583 56.1133 45.4592H11.8883C11.2013 45.4585 10.5425 45.1852 10.0567 44.6994C9.57085 44.2136 9.2976 43.5548 9.29689 42.8677V41.8488H58.7031L58.7047 42.8677Z" fill="black"/>
<path d="M24.1076 17.733C24.4889 17.733 24.8616 17.6199 25.1787 17.4081C25.4957 17.1963 25.7428 16.8952 25.8887 16.5429C26.0347 16.1906 26.0728 15.803 25.9985 15.429C25.9241 15.055 25.7404 14.7115 25.4708 14.4419C25.2012 14.1722 24.8577 13.9886 24.4837 13.9142C24.1097 13.8399 23.7221 13.878 23.3698 14.024C23.0175 14.1699 22.7164 14.417 22.5046 14.734C22.2928 15.0511 22.1797 15.4238 22.1797 15.8051C22.1802 16.3162 22.3835 16.8063 22.745 17.1677C23.1064 17.5291 23.5965 17.7324 24.1076 17.733Z" fill="black"/>
<path d="M34 17.733C34.3813 17.733 34.754 17.6199 35.0711 17.4081C35.3881 17.1963 35.6352 16.8952 35.7812 16.5429C35.9271 16.1906 35.9653 15.803 35.8909 15.429C35.8165 15.055 35.6329 14.7115 35.3632 14.4419C35.0936 14.1722 34.7501 13.9886 34.3761 13.9142C34.0021 13.8399 33.6145 13.878 33.2622 14.024C32.9099 14.1699 32.6088 14.417 32.397 14.734C32.1852 15.0511 32.0721 15.4238 32.0721 15.8051C32.0726 16.3162 32.2759 16.8063 32.6374 17.1677C32.9988 17.5291 33.4889 17.7324 34 17.733Z" fill="black"/>
<path d="M43.8925 17.733C44.2738 17.7331 44.6466 17.6201 44.9637 17.4084C45.2808 17.1966 45.528 16.8955 45.674 16.5433C45.82 16.191 45.8583 15.8033 45.7839 15.4293C45.7096 15.0553 45.526 14.7117 45.2564 14.4421C44.9868 14.1724 44.6433 13.9887 44.2693 13.9143C43.8953 13.8398 43.5077 13.878 43.1553 14.0239C42.803 14.1698 42.5019 14.4169 42.29 14.734C42.0782 15.051 41.9651 15.4238 41.9651 15.8051C41.9657 16.3162 42.1689 16.8061 42.5302 17.1675C42.8915 17.5289 43.3814 17.7323 43.8925 17.733Z" fill="black"/>
<path d="M29.0535 25.4361C29.4348 25.4361 29.8076 25.3231 30.1246 25.1112C30.4416 24.8994 30.6888 24.5983 30.8347 24.246C30.9806 23.8937 31.0188 23.5061 30.9444 23.1321C30.87 22.7581 30.6864 22.4146 30.4168 22.145C30.1471 21.8754 29.8036 21.6918 29.4296 21.6174C29.0557 21.543 28.668 21.5812 28.3157 21.7271C27.9635 21.873 27.6624 22.1201 27.4505 22.4371C27.2387 22.7542 27.1256 23.1269 27.1256 23.5082C27.1262 24.0194 27.3295 24.5094 27.6909 24.8708C28.0523 25.2323 28.5424 25.4356 29.0535 25.4361Z" fill="black"/>
<path d="M38.946 25.4361C39.3274 25.4364 39.7002 25.3235 40.0174 25.1117C40.3346 24.9 40.5818 24.599 40.7279 24.2467C40.874 23.8945 40.9123 23.5068 40.8381 23.1328C40.7638 22.7587 40.5803 22.4151 40.3107 22.1454C40.0411 21.8756 39.6976 21.6919 39.3236 21.6174C38.9496 21.543 38.5619 21.5811 38.2095 21.727C37.8572 21.8729 37.556 22.12 37.3442 22.437C37.1323 22.7541 37.0192 23.1269 37.0192 23.5082C37.0197 24.0192 37.2229 24.5091 37.5841 24.8705C37.9453 25.2319 38.4351 25.4353 38.946 25.4361Z" fill="black"/>
</svg>
