<svg width="68" height="68" viewBox="0 0 68 68" fill="none" xmlns="http://www.w3.org/2000/svg">
<path d="M46.811 29.2188C46.811 27.7517 45.6218 26.5625 44.1547 26.5625H16.7954C15.3283 26.5625 14.1391 27.7517 14.1391 29.2188C14.1391 30.6858 15.3283 31.875 16.7954 31.875H44.1547C45.6218 31.875 46.811 30.6858 46.811 29.2188Z" fill="black"/>
<path d="M16.7953 37.1875C15.3283 37.1875 14.1391 38.3767 14.1391 39.8438C14.1391 41.3108 15.3283 42.5 16.7953 42.5H33.4116C34.8787 42.5 36.0679 41.3108 36.0679 39.8438C36.0679 38.3767 34.8787 37.1875 33.4116 37.1875H16.7953Z" fill="black"/>
<path d="M23.0375 62.6875H14.1538C11.2245 62.6875 8.84131 60.3043 8.84131 57.375V10.625C8.84131 7.69569 11.2245 5.3125 14.1538 5.3125H46.8109C49.7403 5.3125 52.1234 7.69569 52.1234 10.625V26.9609C52.1234 28.428 53.3126 29.6172 54.7797 29.6172C56.2467 29.6172 57.4359 28.428 57.4359 26.9609V10.625C57.4359 4.76638 52.6696 0 46.8109 0H14.1538C8.29518 0 3.52881 4.76638 3.52881 10.625V57.375C3.52881 63.2336 8.29518 68 14.1538 68H23.0375C24.5046 68 25.6938 66.8108 25.6938 65.3438C25.6938 63.8767 24.5046 62.6875 23.0375 62.6875Z" fill="black"/>
<path d="M62.1408 38.4587C59.0338 35.3517 53.9784 35.3516 50.8734 38.4566L36.2902 53.0076C35.9805 53.3166 35.752 53.6973 35.6248 54.1159L32.4489 64.5715C32.1673 65.4986 32.4126 66.5052 33.0891 67.1986C33.596 67.718 34.2845 68 34.9906 68C35.2269 68 35.4654 67.9683 35.6996 67.9034L46.4209 64.9336C46.8621 64.8114 47.2642 64.5772 47.5883 64.2537L62.1409 49.7284C65.248 46.6214 65.248 41.566 62.1408 38.4587ZM44.3296 60.0004L38.9358 61.4945L40.5143 56.2977L50.3542 46.4796L54.1115 50.2368L44.3296 60.0004ZM58.3863 45.9704L57.8717 46.4839L54.1151 42.7273L54.628 42.2155C55.6637 41.1798 57.3488 41.1798 58.3845 42.2155C59.4202 43.2512 59.4201 44.9363 58.3863 45.9704Z" fill="black"/>
<path d="M44.1547 15.9375H16.7954C15.3283 15.9375 14.1391 17.1267 14.1391 18.5938C14.1391 20.0608 15.3283 21.25 16.7954 21.25H44.1547C45.6218 21.25 46.811 20.0608 46.811 18.5938C46.811 17.1267 45.6218 15.9375 44.1547 15.9375Z" fill="black"/>
</svg>
