<svg width="68" height="68" viewBox="0 0 68 68" fill="none" xmlns="http://www.w3.org/2000/svg">
<path d="M52.8547 32.0266C49.2845 32.0266 46.3978 34.9273 46.3978 38.4835C46.3978 39.3342 47.0951 40.0315 47.9457 40.0315C48.7964 40.0315 49.4937 39.3342 49.4937 38.4835C49.4937 36.6287 51.0138 35.1086 52.8686 35.1086C53.7193 35.1086 54.4166 34.4113 54.4166 33.5607C54.4027 32.71 53.7054 32.0266 52.8547 32.0266Z" fill="black"/>
<path d="M63.3838 27.5779C63.0073 27.2153 62.6028 26.8666 62.1844 26.5319L56.4667 21.6788C54.2632 20.1169 51.6414 19.1267 48.7965 18.9315L49.1033 19.2383L45.6308 15.7518H45.6029C44.6406 14.8732 43.3436 14.3293 41.9351 14.3293C39.5085 14.3293 37.4585 15.9052 36.7612 18.0947C36.0639 17.6485 35.2551 17.3835 34.3765 17.3277C34.237 17.3138 34.0836 17.3138 33.9441 17.3138C32.954 17.3138 32.0336 17.6066 31.2526 18.0947C30.5414 15.9192 28.4913 14.3433 26.0787 14.3433C24.6702 14.3433 23.3872 14.8732 22.4109 15.7658H22.3831L18.9105 19.2522L19.2174 18.9454C16.3724 19.1407 13.7366 20.1448 11.5471 21.6927L5.82936 26.5459C5.41098 26.8666 5.00655 27.2153 4.63001 27.5918C1.77112 30.3531 0 34.2161 0 38.4975C0 46.865 6.80556 53.6705 15.1731 53.6705C22.8991 53.6705 29.3002 47.8551 30.2206 40.3662C31.3363 41.0077 32.6332 41.3703 33.9999 41.3703C35.3806 41.3703 36.6636 41.0077 37.7792 40.3662C38.7136 47.8412 45.1008 53.6566 52.8268 53.6566C61.1943 53.6566 67.9999 46.851 67.9999 38.4835C68.0138 34.2022 66.2427 30.3392 63.3838 27.5779ZM15.1731 48.8453C9.45527 48.8453 4.82526 44.2153 4.82526 38.4975C4.82526 32.7797 9.45527 28.1497 15.1731 28.1497C20.8909 28.1497 25.5209 32.7797 25.5209 38.4975C25.5348 44.2013 20.8909 48.8453 15.1731 48.8453ZM34.0139 37.075C32.1591 37.075 30.6529 35.5688 30.6529 33.714C30.6529 31.8593 32.1591 30.3531 34.0139 30.3531C35.8687 30.3531 37.3748 31.8593 37.3748 33.714C37.3748 35.5688 35.8687 37.075 34.0139 37.075ZM52.8547 48.8453C47.1369 48.8453 42.5069 44.2153 42.5069 38.4975C42.5069 32.7797 47.1369 28.1497 52.8547 28.1497C58.5725 28.1497 63.2025 32.7797 63.2025 38.4975C63.2025 44.2013 58.5725 48.8453 52.8547 48.8453Z" fill="black"/>
<path d="M15.1731 32.0266C11.6029 32.0266 8.71614 34.9273 8.71614 38.4835C8.71614 39.3342 9.41343 40.0315 10.2641 40.0315C11.1148 40.0315 11.8121 39.3342 11.8121 38.4835C11.8121 36.6287 13.3322 35.1086 15.187 35.1086C16.0377 35.1086 16.735 34.4113 16.735 33.5607C16.721 32.71 16.0238 32.0266 15.1731 32.0266Z" fill="black"/>
</svg>
