<svg width="68" height="68" viewBox="0 0 68 68" fill="none" xmlns="http://www.w3.org/2000/svg">
<path d="M20.5869 53.2912H27.5633V23.8903H22.6632C22.5801 24.3616 22.4203 24.8661 22.1856 25.406C21.951 25.9458 21.5835 26.4442 21.0852 26.9009C20.5869 27.3577 19.9162 27.7377 19.0711 28.0429C18.2261 28.3482 17.1401 28.4997 15.8113 28.4997H14.9392V32.9016H20.5869V53.2912Z" fill="black"/>
<path d="M44.4232 53.8706C47.6893 53.8706 50.1124 53.0526 51.6904 51.4206C53.2684 49.7865 54.0595 47.1018 54.0595 43.3623C54.0595 39.791 53.4428 37.1956 52.2095 35.576C50.9782 33.9586 49.0181 33.1467 46.3334 33.1467C45.8621 33.1467 45.3845 33.1945 44.9028 33.2921C44.4211 33.3897 43.9539 33.5412 43.5117 33.7489C43.0694 33.9586 42.6666 34.2057 42.3074 34.4964C41.9482 34.787 41.67 35.113 41.4769 35.4722L41.3959 35.3892L41.7281 29.8661H52.8552V24.4677H36.3712L35.4576 40.3724H41.9357C42.0458 39.5149 42.3448 38.9127 42.8286 38.566C43.3124 38.2192 43.873 38.0469 44.5125 38.0469C45.424 38.0469 46.0822 38.4622 46.4829 39.2927C46.8836 40.1232 47.0851 41.4126 47.0851 43.1547C47.0851 45.177 46.9127 46.7343 46.566 47.8264C46.2192 48.9165 45.4925 49.4667 44.3858 49.4667C43.8875 49.4667 43.4743 49.3629 43.14 49.1553C42.8078 48.9477 42.5524 48.6756 42.3697 48.3268C42.1911 47.9822 42.0665 47.5897 41.996 47.1454C41.9274 46.7031 41.8921 46.2318 41.8921 45.7314V44.6496H35.1669V45.7314C35.1669 48.3351 35.9185 50.3429 37.4301 51.7507C38.9334 53.1647 41.2672 53.8706 44.4232 53.8706Z" fill="black"/>
<path d="M35.3185 11.424C35.2188 11.4987 35.1461 11.588 35.1025 11.6918C35.0589 11.7956 35.034 11.9327 35.034 12.1071C35.034 12.3521 35.0776 12.5431 35.1711 12.6843C35.2603 12.8234 35.3932 12.8961 35.5697 12.8961C35.767 12.8961 35.9414 12.8359 36.0888 12.7134C36.2383 12.5909 36.3089 12.3708 36.3089 12.051C36.3089 11.7935 36.313 11.5797 36.3172 11.4115C36.3193 11.2433 36.3213 11.0959 36.3213 10.9651C36.0327 11.1167 35.8126 11.2142 35.6652 11.2579C35.5157 11.2994 35.4015 11.3554 35.3185 11.424Z" fill="black"/>
<path d="M60.9924 2.59542H58.6606C58.7208 2.40232 58.7831 2.20922 58.7831 1.99536C58.7831 0.894901 57.8862 0 56.7836 0C55.6811 0 54.7883 0.894901 54.7883 1.99536C54.7883 2.2113 54.8464 2.40232 54.9108 2.59542H47.2699C47.3301 2.40232 47.3924 2.20922 47.3924 1.99536C47.3924 0.894901 46.4954 0 45.3928 0C44.2924 0 43.3954 0.894901 43.3954 1.99536C43.3954 2.2113 43.4556 2.40232 43.52 2.59542H35.877C35.9372 2.40232 35.9974 2.20922 35.9974 1.99536C35.9974 0.894901 35.1046 0 34.0021 0C32.8995 0 32.0067 0.894901 32.0067 1.99536C32.0067 2.2113 32.0648 2.40232 32.1271 2.59542H24.4841C24.5444 2.40232 24.6066 2.20922 24.6066 1.99536C24.6066 0.894901 23.7117 0 22.6113 0C21.5088 0 20.6139 0.894901 20.6139 1.99536C20.6139 2.2113 20.672 2.40232 20.7343 2.59542H13.0934C13.1557 2.40232 13.2159 2.20922 13.2159 1.99536C13.2159 0.894901 12.323 0 11.2205 0C10.118 0 9.22307 0.894901 9.22307 1.99536C9.22307 2.2113 9.28121 2.40232 9.3435 2.59542H7.00762C3.85574 2.59542 1.2977 5.15554 1.2977 8.30534V62.2901C1.2977 65.442 3.85574 68 7.00762 68H54.5453L66.7023 55.8431V8.30534C66.7023 5.15554 64.1442 2.59542 60.9924 2.59542ZM40.4823 7.83609L41.2339 12.1653H41.2589L41.9794 7.83609H43.8314L42.1641 14.0609C42.0562 14.4555 41.9461 14.7814 41.8278 15.0368C41.7094 15.2922 41.5682 15.4915 41.3938 15.6369C41.2236 15.7802 41.018 15.8819 40.7771 15.94C40.5342 15.9982 40.2332 16.0252 39.876 16.0252H39.4524C39.3943 16.0252 39.3279 16.0231 39.2635 16.0189C39.1991 16.0148 39.1368 16.0106 39.0766 16.0023V14.7005C39.1493 14.715 39.2261 14.7275 39.303 14.7358C39.3798 14.7441 39.4545 14.7461 39.5313 14.7461C39.7058 14.7461 39.8656 14.7005 40.011 14.6049C40.1543 14.5094 40.2539 14.3288 40.3079 14.063L38.5617 7.83817L40.4823 7.83609ZM36.1864 9.05282C36.095 8.94278 35.9476 8.88672 35.742 8.88672C35.4825 8.88672 35.3081 8.96147 35.2167 9.10889C35.1254 9.25631 35.0755 9.46601 35.0672 9.73179H33.4228C33.429 9.29783 33.4934 8.95108 33.6117 8.69154C33.7301 8.43408 33.8983 8.22852 34.1204 8.07487C34.3405 7.9233 34.5876 7.81948 34.8575 7.76134C35.1274 7.70528 35.4576 7.67621 35.8459 7.67621C36.6079 7.67621 37.1643 7.81533 37.5131 8.09356C37.862 8.37179 38.0405 8.84104 38.0405 9.50339V12.6781C38.0405 12.9127 38.0488 13.1619 38.0696 13.4194C38.0883 13.6789 38.1527 13.8762 38.2586 14.0132H36.4771C36.4376 13.9052 36.4168 13.7931 36.4044 13.6706C36.3919 13.5481 36.3836 13.4277 36.3753 13.3052H36.3483C36.2175 13.5792 36.0265 13.791 35.767 13.9447C35.5074 14.0983 35.2167 14.1731 34.899 14.1731C34.3737 14.1731 33.9668 14.0277 33.6844 13.7329C33.3979 13.4401 33.2546 12.9584 33.2546 12.2898C33.2546 11.9223 33.3231 11.6026 33.4601 11.3243C33.5972 11.0461 33.7799 10.8426 34.0083 10.7118C34.2367 10.5831 34.5045 10.4855 34.816 10.4149C35.1233 10.3443 35.4057 10.2779 35.6652 10.2093C35.8022 10.1699 35.9144 10.1346 36.0016 10.0993C36.0888 10.064 36.1573 10.0245 36.2071 9.97056C36.257 9.92489 36.2881 9.85844 36.3047 9.78162C36.3213 9.70687 36.3296 9.61136 36.3296 9.49508C36.3234 9.31444 36.2798 9.16287 36.1864 9.05282ZM24.7105 5.8615H27.5197L28.5247 11.2164H28.5475L29.5172 5.8615H32.2912V14.0153H30.5117V7.66583H30.4889L29.2431 14.0153H27.7585L26.4442 7.66583H26.4214V14.0153H24.7084L24.7105 5.8615ZM63.5878 54.5516L62.942 55.1973H58.0523C55.7641 55.1973 53.8996 57.0619 53.8996 59.35V64.2398L53.2539 64.8855H7.00762C5.57703 64.8855 4.4122 63.7207 4.4122 62.2901V18.687H63.5878V54.5516Z" fill="black"/>
</svg>
