<svg width="62" height="68" viewBox="0 0 62 68" fill="none" xmlns="http://www.w3.org/2000/svg">
<path d="M1.63695 57.1808H12.4553V66.4548C12.4553 66.906 12.5997 67.2754 12.8901 67.5641C13.1798 67.8547 13.5501 68 14.0012 68H22.0661C22.4847 68 22.8469 67.8547 23.1528 67.5641C23.4587 67.2754 23.6112 66.9059 23.6112 66.4548V57.1808H48.0003C48.4505 57.1808 48.8209 57.0374 49.1113 56.7468C49.4019 56.4565 49.5461 56.0868 49.5461 55.6356V49.4536C49.5461 49.005 49.4019 48.633 49.1113 48.3442C48.8217 48.0536 48.4505 47.9083 48.0003 47.9083H23.6104V42.2092H40.0309C46.4699 42.2092 51.7253 40.2472 55.7993 36.3175C59.8718 32.3919 61.909 27.3211 61.909 21.1046C61.909 14.8923 59.8718 9.82129 55.7993 5.89173C51.7261 1.96604 46.4698 0 40.0309 0H14.0004C13.5492 0 13.1797 0.145164 12.8893 0.434025C12.5997 0.724486 12.4545 1.09639 12.4545 1.54508V31.9237H1.63695C1.18586 31.9237 0.816217 32.0763 0.52589 32.3821C0.236362 32.688 0.0910645 33.0502 0.0910645 33.4686V40.6639C0.0910645 41.1151 0.235429 41.4847 0.52589 41.7751C0.816351 42.0657 1.18506 42.2091 1.63695 42.2091H12.4553V47.9082H1.63695C1.18586 47.9082 0.816217 48.0535 0.52589 48.3441C0.236362 48.6328 0.0910645 49.0041 0.0910645 49.4534V55.6355C0.0910645 56.0867 0.235429 56.4563 0.52589 56.7467C0.816217 57.0374 1.18573 57.1808 1.63695 57.1808ZM23.6104 10.288H39.065C42.4774 10.288 45.2298 11.2857 47.3233 13.2819C49.4157 15.2782 50.4624 17.887 50.4624 21.1054C50.4624 24.3254 49.4157 26.935 47.3233 28.9289C45.2298 30.9268 42.4773 31.9246 39.065 31.9246H23.6104V10.288Z" fill="black"/>
</svg>
