<svg width="68" height="68" viewBox="0 0 68 68" fill="none" xmlns="http://www.w3.org/2000/svg">
<g clip-path="url(#clip0)">
<path d="M28.8126 29.3367C28.7798 27.8285 27.5337 26.5887 25.9843 26.6124L16.3463 26.7616L12.0615 20.5253L17.0455 24.8406L19.2158 24.807V18.6291C19.2158 16.4744 17.4691 14.7278 15.3145 14.7278H8.35696C5.86885 14.7278 4.20179 17.0439 4.4556 18.7888V38.6769L5.71837 48.8613L0.240798 62.1557C-0.428841 63.7812 0.345853 65.6418 1.97134 66.3114C3.5967 66.9812 5.45753 66.2061 6.12717 64.5809L11.9232 50.5128C12.1321 50.0056 12.2065 49.4531 12.1391 48.9086L11.143 40.8745H13.6154L14.5116 47.7375L11.3411 62.7089C10.9768 64.4288 12.0758 66.1182 13.7958 66.4823C15.5189 66.8469 17.2058 65.745 17.5692 64.0277L20.654 49.4607C19.5083 47.846 18.7261 45.93 18.4039 43.8912C18.1144 42.0574 18.4986 39.7853 19.5447 37.1158L19.2154 34.2012C14.8292 34.269 14.4602 34.3714 13.4251 34.0301C12.0754 33.585 11.0876 32.5323 10.8188 31.8421L7.86688 24.2624L12.5986 31.149C13.1205 31.9088 14.0028 32.3718 14.9385 32.3571L26.0704 32.1846C27.6264 32.1607 28.8371 30.8704 28.8135 29.3553C28.8136 29.3491 28.8127 29.343 28.8126 29.3367Z" fill="black"/>
<path d="M11.866 1.44775C8.67636 1.44775 6.09064 4.03348 6.09064 7.2231C6.09064 10.4236 8.69163 12.9984 11.866 12.9984C15.0405 12.9984 17.6413 10.4236 17.6413 7.2231C17.6413 4.03348 15.0556 1.44775 11.866 1.44775Z" fill="black"/>
<path d="M26.7301 20.7913L24.1107 21.205C23.3909 21.3187 22.9824 22.0925 23.2918 22.7505L24.2226 24.7296C25.9694 24.7025 26.6071 24.6168 27.6094 24.9745L27.9857 22.0089C28.0774 21.2848 27.4469 20.6779 26.7301 20.7913Z" fill="black"/>
<path d="M37.1887 40.9235C36.6823 37.7178 33.0757 34.0087 30.2169 31.5154C29.4263 33.0787 27.847 34.0679 26.1001 34.0946L23.1493 34.1403C21.4878 37.1849 19.9426 40.8887 20.3678 43.581C21.2231 48.9949 25.6815 52.7907 30.3274 52.0568C34.9721 51.3229 38.0442 46.3384 37.1887 40.9235Z" fill="black"/>
<path d="M60.8987 54.8054C58.664 54.8054 56.7172 56.0601 55.7247 57.9021C55.9425 58.5081 56.0987 59.0945 56.1878 59.6585C56.4249 61.1594 56.4089 62.6597 56.1431 64.1197C57.2114 65.5922 58.9445 66.5523 60.8987 66.5523C64.1374 66.5523 66.7722 63.9174 66.7722 60.6788C66.7722 57.4401 64.1374 54.8054 60.8987 54.8054ZM60.8987 63.2132C59.5012 63.2132 58.3643 62.0764 58.3643 60.6788C58.3643 59.2813 59.5012 58.1445 60.8987 58.1445C62.2961 58.1445 63.4331 59.2813 63.4331 60.6788C63.4331 62.0762 62.2961 63.2132 60.8987 63.2132Z" fill="black"/>
<path d="M66.2413 29.4233H64.7276C64.8639 29.1734 64.9416 28.887 64.9416 28.5823C64.9416 27.611 64.1543 26.8237 63.183 26.8237H44.6366C43.6653 26.8237 42.878 27.611 42.878 28.5823C42.878 28.887 42.9556 29.1734 43.092 29.4233H41.5783C40.6071 29.4233 39.8198 30.2106 39.8198 31.1818C39.8198 32.1531 40.6071 32.9404 41.5783 32.9404H41.7811L42.3698 38.0444L43.4555 37.8729C45.4194 37.5628 47.1563 39.1662 47.009 41.1475L47.0072 46.8315C48.2661 47.8832 50.0092 49.5439 51.5786 51.3617C52.7214 52.6856 53.6569 53.9521 54.3859 55.1564C55.9545 53.3094 58.2914 52.134 60.8989 52.134C61.927 52.134 62.9133 52.3168 63.8272 52.6511L66.0438 32.9404H66.2416C67.2128 32.9404 68.0001 32.1531 68.0001 31.1818C67.9999 30.2106 67.2126 29.4233 66.2413 29.4233Z" fill="black"/>
<path d="M54.2246 59.9687C53.4821 55.271 46.9665 49.2384 45.0189 47.7895L45.0212 41.0542C45.1128 40.3316 44.4846 39.7228 43.7657 39.8365L41.1464 40.2502C40.4267 40.3639 40.018 41.1376 40.3275 41.7957L42.2284 48.2864C40.8223 50.265 36.6613 57.9284 37.4034 62.626C37.4857 63.1476 37.6018 63.654 37.7481 64.1427C38.1471 65.4754 39.3719 66.3854 40.763 66.3854H51.0855C52.5977 66.3854 53.8988 65.3095 54.1781 63.8233C54.4072 62.6022 54.4347 61.2986 54.2246 59.9687Z" fill="black"/>
</g>
<defs>
<clipPath id="clip0">
<rect width="68" height="68" fill="white"/>
</clipPath>
</defs>
</svg>
