<svg width="68" height="68" viewBox="0 0 68 68" fill="none" xmlns="http://www.w3.org/2000/svg">
<path d="M4.10398 19.8113C1.84094 19.8113 0 21.6522 0 23.9153V44.0869C0 46.3499 1.84094 48.1908 4.10398 48.1908H10.8887V19.8113H4.10398ZM8.15267 45.4549H4.10398C3.34982 45.4549 2.73599 44.8417 2.73599 44.0869V23.9153C2.73599 23.1604 3.34982 22.5473 4.10398 22.5473H8.15253V45.4549H8.15267Z" fill="black"/>
<path d="M39.3117 5.98811C37.9737 5.3094 36.3887 5.435 35.2103 6.29267L14.4316 20.4551V47.5456L35.1749 61.6841C35.8696 62.1904 36.6866 62.4469 37.5088 62.4469C38.1226 62.4469 38.7399 62.3039 39.3117 62.0127C40.6496 61.3327 41.4806 59.9767 41.4806 58.4764V9.52439C41.4806 8.02413 40.6496 6.66822 39.3117 5.98811ZM38.7447 58.4764C38.7447 59.1577 38.2738 59.4716 38.0714 59.5746C37.867 59.6761 37.3365 59.8712 36.7507 59.4477L17.1677 46.1003V21.9007L36.7862 8.52917C37.3379 8.12833 37.8703 8.3234 38.0714 8.42636C38.2738 8.52917 38.7447 8.84317 38.7447 9.52453V58.4764Z" fill="black"/>
<path d="M68 25.1298L66.0655 23.1953L57.1955 32.066L48.3254 23.1953L46.3909 25.1298L55.2611 34.0005L46.3909 42.8712L48.3254 44.8056L57.1955 35.9351L66.0655 44.8056L68 42.8712L59.1298 34.0005L68 25.1298Z" fill="black"/>
</svg>
