<svg width="68" height="68" viewBox="0 0 68 68" fill="none" xmlns="http://www.w3.org/2000/svg">
<g clip-path="url(#clip0)">
<path d="M61.943 11.7421C52.587 9.17856 43.1761 5.18688 34.7275 0.19872C34.2787 -0.0662401 33.7218 -0.0662401 33.2732 0.19872C24.5809 5.33019 15.6785 9.10591 6.05691 11.7421C5.43534 11.9122 5.0045 12.4772 5.0045 13.1218V27.7372C5.0045 42.7879 11.9478 52.7504 17.7727 58.4575C24.0435 64.602 31.3482 68 34.0003 68C36.6522 68 43.9569 64.602 50.2277 58.4575C56.0525 52.7505 62.9954 42.788 62.9954 27.7372V13.1216C62.9954 12.4772 62.5645 11.9122 61.943 11.7421ZM60.1346 27.7371C60.1346 41.7943 53.6585 51.0905 48.2255 56.4139C42.0588 62.4562 35.4657 65.139 34.0003 65.139C32.535 65.139 25.9414 62.4562 19.7747 56.4139C14.3417 51.0904 7.86541 41.7943 7.86541 27.7371V14.2075C17.0664 11.5951 25.6352 7.94924 34.0006 3.08792C42.1571 7.82028 51.1534 11.6474 60.1346 14.207V27.7371Z" fill="black"/>
<path d="M21.3214 14.0474C21.0319 13.3123 20.2014 12.9512 19.4662 13.2409C16.9109 14.2477 14.2881 15.1745 11.6708 15.9955C11.0743 16.1828 10.6684 16.7353 10.6684 17.3603V22.8841C10.6684 23.6741 11.309 24.3145 12.0988 24.3145C12.8886 24.3145 13.5292 23.6741 13.5292 22.8841V18.4057C15.8772 17.646 18.2227 16.8057 20.5149 15.9024C21.25 15.613 21.6111 14.7825 21.3214 14.0474Z" fill="black"/>
<path d="M24.0386 14.3189C24.2305 14.3189 24.4254 14.2803 24.6122 14.1987L24.6385 14.1873C25.3622 13.8701 25.6881 13.0277 25.371 12.3043C25.0536 11.5806 24.2064 11.2532 23.4835 11.5701L23.4604 11.5801C22.7363 11.8963 22.4093 12.738 22.7255 13.4619C22.9602 13.9992 23.4868 14.3189 24.0386 14.3189Z" fill="black"/>
<path d="M51.0427 46.1234C50.3817 45.6914 49.4953 45.8772 49.0627 46.5385C47.884 48.3426 46.5012 50.0702 44.952 51.6729C43.6781 52.9906 42.2977 54.2189 40.8491 55.3232C40.221 55.8021 40.1001 56.6997 40.5789 57.328C40.8606 57.6971 41.2866 57.8913 41.7174 57.8913C42.0199 57.8913 42.3247 57.7958 42.5837 57.5982C44.1463 56.4067 45.6351 55.0822 47.0086 53.6613C48.6835 51.9289 50.1803 50.0589 51.4577 48.1033C51.89 47.4419 51.704 46.5555 51.0427 46.1234Z" fill="black"/>
<path d="M37.5272 57.5665L37.4451 57.6149C36.7615 58.0108 36.5279 58.8858 36.9237 59.5693C37.1889 60.0275 37.669 60.2833 38.1629 60.2833C38.406 60.2833 38.6527 60.2213 38.8781 60.0905L38.9728 60.0349C39.6545 59.6356 39.8835 58.7595 39.4843 58.0777C39.0848 57.3963 38.2085 57.1677 37.5272 57.5665Z" fill="black"/>
<path d="M24.2501 31.0804C23.3718 30.202 22.2037 29.7186 20.9614 29.7186C19.719 29.7186 18.5508 30.2021 17.6721 31.0804C15.8588 32.8941 15.8588 35.8452 17.6721 37.6587L26.1185 46.1048C26.9969 46.983 28.165 47.4665 29.4074 47.4665C30.6499 47.4665 31.818 46.983 32.6965 46.1045L50.3288 28.4721C52.142 26.658 52.142 23.7073 50.3285 21.8943C49.4501 21.0159 48.282 20.5325 47.0394 20.5325C45.797 20.5325 44.6289 21.016 43.7503 21.8943L29.4073 36.2374L24.2501 31.0804ZM45.7733 23.9173C46.1114 23.5793 46.5612 23.3932 47.0396 23.3932C47.5182 23.3932 47.9677 23.5793 48.3059 23.9173C49.0039 24.6153 49.0039 25.7513 48.3057 26.4495L30.6737 44.0817C30.3356 44.4197 29.8858 44.6058 29.4074 44.6058C28.929 44.6058 28.4792 44.4197 28.1411 44.0817L19.695 35.6359C18.9968 34.9377 18.9968 33.8016 19.6947 33.1037C20.0329 32.7657 20.4827 32.5793 20.9612 32.5793C21.4397 32.5793 21.8893 32.7654 22.2273 33.1034L28.3958 39.272C28.6642 39.5402 29.0278 39.6909 29.4073 39.6909C29.7867 39.6909 30.1504 39.5403 30.4185 39.272L45.7733 23.9173Z" fill="black"/>
</g>
<defs>
<clipPath id="clip0">
<rect width="68" height="68" fill="white"/>
</clipPath>
</defs>
</svg>
